<svg xmlns="http://www.w3.org/2000/svg" width="40" height="40" viewBox="0 0 40 40">
  <defs>
    <style>
      .cls-1 {
        fill: #525352;
      }
    </style>
  </defs>
  <g id="Web">
    <g>
      <path class="cls-1" d="M19.63,37.35V27a17.25,17.25,0,0,0-7.54,1.91C13.65,33.79,16.43,37.1,19.63,37.35Z"/>
      <path class="cls-1" d="M7.37,32.48a17.73,17.73,0,0,0,10.21,5.09c-2.6-1.18-4.8-4.21-6.14-8.29A17.33,17.33,0,0,0,7.37,32.48Z"/>
      <path class="cls-1" d="M20.38,37.35c3.19-.25,6-3.56,7.53-8.42A17.24,17.24,0,0,0,20.38,27Z"/>
      <path class="cls-1" d="M19.63,26.27V20.38H10.77a30.34,30.34,0,0,0,1.09,7.83A18,18,0,0,1,19.63,26.27Z"/>
      <path class="cls-1" d="M32.63,32.48a17.33,17.33,0,0,0-4.07-3.2c-1.34,4.08-3.54,7.11-6.14,8.29A17.73,17.73,0,0,0,32.63,32.48Z"/>
      <path class="cls-1" d="M19.63,2.66c-3.2.24-6,3.55-7.54,8.41A17.25,17.25,0,0,0,19.63,13Z"/>
      <path class="cls-1" d="M19.63,19.63v-5.9a18,18,0,0,1-7.77-1.94,30.35,30.35,0,0,0-1.09,7.84Z"/>
      <path class="cls-1" d="M7.37,7.52a17.33,17.33,0,0,0,4.07,3.2C12.78,6.64,15,3.61,17.59,2.43A17.73,17.73,0,0,0,7.37,7.52Z"/>
      <path class="cls-1" d="M10,19.63a30.29,30.29,0,0,1,1.18-8.18A18,18,0,0,1,6.87,8.08,17.69,17.69,0,0,0,2.26,19.63Z"/>
      <path class="cls-1" d="M20.38,20.38v5.89a18,18,0,0,1,7.76,1.94,30.34,30.34,0,0,0,1.09-7.83Z"/>
      <path class="cls-1" d="M11.2,28.55A30.27,30.27,0,0,1,10,20.38H2.26A17.68,17.68,0,0,0,6.87,31.92,18,18,0,0,1,11.2,28.55Z"/>
      <path class="cls-1" d="M28.8,11.45A30.29,30.29,0,0,1,30,19.63h7.76A17.69,17.69,0,0,0,33.13,8.08,18,18,0,0,1,28.8,11.45Z"/>
      <path class="cls-1" d="M30,20.38a30.27,30.27,0,0,1-1.18,8.17,18,18,0,0,1,4.33,3.37,17.68,17.68,0,0,0,4.61-11.54Z"/>
      <path class="cls-1" d="M32.63,7.52A17.73,17.73,0,0,0,22.41,2.43c2.61,1.18,4.81,4.21,6.15,8.29A17.33,17.33,0,0,0,32.63,7.52Z"/>
      <path class="cls-1" d="M20.38,13.73v5.9h8.85a30.35,30.35,0,0,0-1.09-7.84A18,18,0,0,1,20.38,13.73Z"/>
      <path class="cls-1" d="M20.38,2.66V13a17.24,17.24,0,0,0,7.53-1.91C26.35,6.21,23.57,2.9,20.38,2.66Z"/>
    </g>
  </g>
</svg>
