<svg id="Twitter" xmlns="http://www.w3.org/2000/svg" width="40" height="40" viewBox="0 0 40 40">
  <defs>
    <style>
      .cls-1 {
        fill: #525352;
      }
    </style>
  </defs>
  <path class="cls-1" d="M35.66,10.32a12.87,12.87,0,0,1-3.67,1A6.39,6.39,0,0,0,34.8,7.79a12.91,12.91,0,0,1-4.07,1.55,6.4,6.4,0,0,0-10.9,5.84A18.16,18.16,0,0,1,6.63,8.49a6.4,6.4,0,0,0,2,8.55,6.32,6.32,0,0,1-2.9-.8v.08a6.41,6.41,0,0,0,5.14,6.28,6.32,6.32,0,0,1-1.69.22A6.69,6.69,0,0,1,8,22.71a6.39,6.39,0,0,0,6,4.44,12.87,12.87,0,0,1-8,2.74c-.51,0-1,0-1.52-.08a18.16,18.16,0,0,0,9.81,2.87c11.78,0,18.22-9.75,18.22-18.22,0-.27,0-.55,0-.82a12.91,12.91,0,0,0,3.19-3.32"/>
</svg>
