<svg xmlns="http://www.w3.org/2000/svg" width="40" height="40" viewBox="0 0 40 40">
  <defs>
    <style>
      .cls-1 {
        fill: #525352;
      }
    </style>
  </defs>
  <g id="Instagram">
    <path class="cls-1" d="M29.62,4.42H10.5a6,6,0,0,0-6,6V29.56a6,6,0,0,0,6,6H29.62a6,6,0,0,0,6-6V10.44A6,6,0,0,0,29.62,4.42ZM31.34,8H32v5.28l-5.26,0,0-5.28ZM15.61,16.8a5.48,5.48,0,1,1-1,3.2A5.49,5.49,0,0,1,15.61,16.8Zm17,12.76a3,3,0,0,1-3,3H10.5a3,3,0,0,1-3-3V16.8h4.65A8.52,8.52,0,1,0,28,16.8H32.6Z"/>
  </g>
</svg>
