<svg xmlns="http://www.w3.org/2000/svg" width="40" height="40" viewBox="0 0 40 40">
  <defs>
    <style>
      .cls-1 {
        fill: #525352;
      }
    </style>
  </defs>
  <g id="Project_Location" data-name="Project Location">
    <path class="cls-1" d="M19.81,2.81A10.64,10.64,0,0,0,9.17,13.45c0,5.88,10.64,22.37,10.64,22.37S30.45,19.33,30.45,13.45A10.64,10.64,0,0,0,19.81,2.81Zm0,6.3a2.94,2.94,0,1,1-2.94,2.94A2.94,2.94,0,0,1,19.81,9.11Zm0,12.88a8.26,8.26,0,0,1-5.51-2.1c.62-1.66,2.85-2.89,5.51-2.89s4.89,1.23,5.51,2.89A8.26,8.26,0,0,1,19.81,22Z"/>
  </g>
</svg>
